# xmcd CD database file
#
# Track frame offsets:
#	150
#	10560
#	24112
#	38442
#	49827
#	60615
#	73599
#	87227
#	97526
#	114575
#	126656
#
# Disc length: 1847 seconds
#
# Revision: 0
# Processed by: cddbd v1.5.1PL2 Copyright (c) Steve Scherf et al.
# Submitted via: CDex 1.51
#
DISCID=7c07350b
DTITLE=Kayton Roberts - The Hits of Hank Snow Vol. 1
DYEAR=2005
DGENRE=Country
TTITLE0=I'm Movin' On
TTITLE1=Rhumba Boogie
TTITLE2=Fool Such As I
TTITLE3=Down The Trail Of Achin' Hearts
TTITLE4=The Gold Rush Is Over
TTITLE5=I Don't Hurt Any More
TTITLE6=Yellow Roses
TTITLE7=The Golden Rocket
TTITLE8=Bluebird Island
TTITLE9=I've Been Everewhere
TTITLE10=The Bells Of St. Mary
EXTD=YEAR: 2005
EXTT0=
EXTT1=
EXTT2=
EXTT3=
EXTT4=
EXTT5=
EXTT6=
EXTT7=
EXTT8=
EXTT9=
EXTT10=
PLAYORDER=
